<svg width="73" height="93" viewBox="0 0 73 93" fill="none" xmlns="http://www.w3.org/2000/svg">
<path d="M17.9003 30.0319L3.1675 51.8011C2.73759 52.4993 3.18146 53.407 3.99521 53.4963L33.0644 56.5783L17.9003 30.0319ZM4.0343 44.048L14.5434 26.9625L3.84586 20.5417C3.47318 20.3182 3 20.5864 3 21.0207V43.7561C3 44.3189 3.73839 44.5284 4.0343 44.048ZM5.54736 59.1533L32.682 71.3945C33.4217 71.7367 34.2662 71.1949 34.2662 70.3807V61.2103L5.85444 58.0962C5.2333 58.0264 4.98485 58.8768 5.54736 59.1533ZM16.8842 23.1558L28.0409 3.19506C28.6467 2.20917 27.5398 1.06549 26.5362 1.63942L5.48594 15.4097C5.14118 15.636 5.15234 16.1443 5.50409 16.3565L16.8842 23.1558ZM36.4995 24.5774H51.7432L38.402 1.06409C37.9651 0.354697 37.2323 0 36.4995 0C35.7667 0 35.0339 0.354697 34.597 1.06409L21.2558 24.5774H36.4995ZM69.1532 20.5417L58.4556 26.9639L68.9647 44.0494C69.2592 44.5298 69.999 44.3203 69.999 43.7561V21.0207C69.999 20.5864 69.5258 20.3182 69.1532 20.5417ZM56.1149 23.1558L67.4949 16.3551C67.8481 16.1429 67.8578 15.6346 67.5131 15.4084L46.4628 1.63942C45.4592 1.06549 44.3524 2.20917 44.9581 3.19506L56.1149 23.1558ZM67.1446 58.0962L38.7328 61.2089V70.3793C38.7328 71.1948 39.5773 71.7353 40.3171 71.3931L67.4517 59.1519C68.0142 58.8768 67.7657 58.0264 67.1446 58.0962ZM55.0987 30.0319L39.936 56.5783L69.0052 53.4963C69.819 53.4056 70.2628 52.4993 69.8329 51.8011L55.0987 30.0319ZM36.4995 29.046H22.4814L36.4995 53.5885L50.5177 29.046H36.4995Z" fill="url(#paint0_linear_47_148)"/>
<path d="M0 93V86.3509H5.32773C5.57224 86.3509 5.79423 86.4094 5.9937 86.5264C6.1996 86.6434 6.36368 86.8004 6.48593 86.9974C6.60819 87.1882 6.66932 87.4006 6.66932 87.6346V88.9367C6.66932 89.0167 6.66288 89.0937 6.65001 89.1675C6.63714 89.2414 6.61462 89.3122 6.58245 89.3799C6.69184 89.5215 6.7787 89.6693 6.84304 89.8232C6.91382 89.9771 6.94921 90.131 6.94921 90.285V91.7164C6.94921 91.9503 6.88809 92.1658 6.76583 92.3628C6.64358 92.5536 6.4795 92.7076 6.2736 92.8245C6.06769 92.9415 5.84249 93 5.59798 93H0ZM1.38984 91.7718H5.54007C5.57224 91.7718 5.6012 91.7625 5.62693 91.7441C5.65267 91.7194 5.66554 91.6917 5.66554 91.6609V90.3404C5.66554 90.3096 5.65267 90.285 5.62693 90.2665C5.6012 90.2419 5.57224 90.2296 5.54007 90.2296H1.38984C1.35767 90.2296 1.32872 90.2419 1.30298 90.2665C1.28367 90.285 1.27402 90.3096 1.27402 90.3404V91.6609C1.27402 91.6917 1.28367 91.7194 1.30298 91.7441C1.32872 91.7625 1.35767 91.7718 1.38984 91.7718ZM1.38984 89.0013H5.26982C5.30199 89.0013 5.32773 88.9921 5.34703 88.9736C5.36634 88.949 5.37599 88.9213 5.37599 88.8905V87.69C5.37599 87.6592 5.36634 87.6346 5.34703 87.6161C5.32773 87.5915 5.30199 87.5792 5.26982 87.5792H1.38984C1.35767 87.5792 1.32872 87.5915 1.30298 87.6161C1.28367 87.6346 1.27402 87.6592 1.27402 87.69V88.8905C1.27402 88.9213 1.28367 88.949 1.30298 88.9736C1.32872 88.9921 1.35767 89.0013 1.38984 89.0013Z" fill="white"/>
<path d="M9.28522 93C9.04071 93 8.81873 92.9415 8.61926 92.8245C8.41979 92.7076 8.25893 92.5536 8.13667 92.3628C8.01442 92.1719 7.95329 91.9595 7.95329 91.7256V88.9182C7.95329 88.6843 8.01442 88.4719 8.13667 88.281C8.25893 88.0901 8.41979 87.9362 8.61926 87.8193C8.81873 87.7023 9.04071 87.6438 9.28522 87.6438H12.3062C12.5507 87.6438 12.7727 87.7023 12.9722 87.8193C13.1781 87.9362 13.3389 88.0901 13.4548 88.281C13.577 88.4719 13.6381 88.6843 13.6381 88.9182V91.7256C13.6381 91.9595 13.577 92.1719 13.4548 92.3628C13.3389 92.5536 13.1813 92.7076 12.9818 92.8245C12.7824 92.9415 12.5571 93 12.3062 93H9.28522ZM9.33348 91.7902H12.2579C12.2901 91.7902 12.3159 91.781 12.3352 91.7625C12.3609 91.7379 12.3738 91.7102 12.3738 91.6794V88.9644C12.3738 88.9336 12.3609 88.909 12.3352 88.8905C12.3159 88.8659 12.2901 88.8536 12.2579 88.8536H9.33348C9.30131 88.8536 9.27235 88.8659 9.24662 88.8905C9.22731 88.909 9.21766 88.9336 9.21766 88.9644V91.6794C9.21766 91.7102 9.22731 91.7379 9.24662 91.7625C9.27235 91.781 9.30131 91.7902 9.33348 91.7902Z" fill="white"/>
<path d="M15.7987 93C15.5542 93 15.3322 92.9415 15.1327 92.8245C14.9332 92.7076 14.7724 92.5536 14.6501 92.3628C14.5279 92.1719 14.4667 91.9595 14.4667 91.7256V86H15.7311V87.6438H17.9124V88.8536H15.7311V91.6794C15.7311 91.7102 15.7408 91.7379 15.7601 91.7625C15.7858 91.781 15.8148 91.7902 15.8469 91.7902H17.9124V93H15.7987Z" fill="white"/>
<path d="M20.219 93C19.9745 93 19.7493 92.9415 19.5434 92.8245C19.3439 92.7076 19.1831 92.5536 19.0608 92.3628C18.945 92.1719 18.8871 91.9595 18.8871 91.7256V89.7124H23.3075V88.9644C23.3075 88.9336 23.2947 88.909 23.2689 88.8905C23.2496 88.8659 23.2239 88.8536 23.1917 88.8536H18.8871V87.6438H23.24C23.4845 87.6438 23.7065 87.7023 23.9059 87.8193C24.1118 87.9362 24.2727 88.0901 24.3885 88.281C24.5108 88.4719 24.5719 88.6843 24.5719 88.9182V93H20.219ZM20.2673 91.7902H23.3075V90.8021H20.1514V91.6794C20.1514 91.7102 20.1611 91.7379 20.1804 91.7625C20.2061 91.781 20.2351 91.7902 20.2673 91.7902Z" fill="white"/>
<path d="M28.5581 93V87.6438H32.911C33.1555 87.6438 33.3775 87.7023 33.5769 87.8193C33.7828 87.9362 33.9437 88.0901 34.0595 88.281C34.1818 88.4719 34.2429 88.6843 34.2429 88.9182V93H32.9785V88.9644C32.9785 88.9336 32.9657 88.909 32.9399 88.8905C32.9206 88.8659 32.8949 88.8536 32.8627 88.8536H29.9382C29.9061 88.8536 29.8771 88.8659 29.8514 88.8905C29.8321 88.909 29.8224 88.9336 29.8224 88.9644V93H28.5581Z" fill="white"/>
<path d="M36.591 93C36.3465 93 36.1213 92.9415 35.9154 92.8245C35.716 92.7076 35.5551 92.5536 35.4328 92.3628C35.317 92.1719 35.2591 91.9595 35.2591 91.7256V89.7124H39.6796V88.9644C39.6796 88.9336 39.6667 88.909 39.641 88.8905C39.6217 88.8659 39.5959 88.8536 39.5638 88.8536H35.2591V87.6438H39.612C39.8565 87.6438 40.0785 87.7023 40.278 87.8193C40.4839 87.9362 40.6448 88.0901 40.7606 88.281C40.8828 88.4719 40.944 88.6843 40.944 88.9182V93H36.591ZM36.6393 91.7902H39.6796V90.8021H36.5235V91.6794C36.5235 91.7102 36.5331 91.7379 36.5524 91.7625C36.5782 91.781 36.6071 91.7902 36.6393 91.7902Z" fill="white"/>
<path d="M44.9301 93V87.6438H51.8697C52.1206 87.6438 52.3458 87.7023 52.5453 87.8193C52.7448 87.9362 52.9024 88.0901 53.0182 88.281C53.1405 88.4719 53.2016 88.6843 53.2016 88.9182V93H51.9469V88.9644C51.9469 88.9336 51.934 88.909 51.9083 88.8905C51.8825 88.8659 51.8536 88.8536 51.8214 88.8536H49.8235C49.7913 88.8536 49.7624 88.8659 49.7366 88.8905C49.7173 88.909 49.7077 88.9336 49.7077 88.9644V93H48.4337V88.9644C48.4337 88.9336 48.4208 88.909 48.3951 88.8905C48.3758 88.8659 48.35 88.8536 48.3178 88.8536H46.3103C46.2781 88.8536 46.2492 88.8659 46.2234 88.8905C46.2041 88.909 46.1945 88.9336 46.1945 88.9644V93H44.9301Z" fill="white"/>
<path d="M55.4041 93C55.1596 93 54.9376 92.9415 54.7381 92.8245C54.5386 92.7076 54.3778 92.5536 54.2555 92.3628C54.1333 92.1719 54.0721 91.9595 54.0721 91.7256V88.9182C54.0721 88.6843 54.1333 88.4719 54.2555 88.281C54.3778 88.0901 54.5386 87.9362 54.7381 87.8193C54.9376 87.7023 55.1596 87.6438 55.4041 87.6438H58.425C58.6696 87.6438 58.8915 87.7023 59.091 87.8193C59.2969 87.9362 59.4578 88.0901 59.5736 88.281C59.6959 88.4719 59.757 88.6843 59.757 88.9182V90.9314H55.3365V91.6794C55.3365 91.7102 55.3462 91.7379 55.3655 91.7625C55.3912 91.781 55.4202 91.7902 55.4523 91.7902H59.757V93H55.4041ZM55.3365 89.8417H58.4926V88.9644C58.4926 88.9336 58.4797 88.909 58.454 88.8905C58.4347 88.8659 58.409 88.8536 58.3768 88.8536H55.4523C55.4202 88.8536 55.3912 88.8659 55.3655 88.8905C55.3462 88.909 55.3365 88.9336 55.3365 88.9644V89.8417Z" fill="white"/>
<path d="M61.9918 93C61.7473 93 61.5253 92.9415 61.3258 92.8245C61.1264 92.7076 60.9655 92.5536 60.8432 92.3628C60.721 92.1719 60.6599 91.9595 60.6599 91.7256V91.5224H61.9242V91.6794C61.9242 91.7102 61.9339 91.7379 61.9532 91.7625C61.9789 91.781 62.0079 91.7902 62.0401 91.7902H64.9645C64.9967 91.7902 65.0224 91.781 65.0417 91.7625C65.0675 91.7379 65.0803 91.7102 65.0803 91.6794V91.0422C65.0803 91.0114 65.0675 90.9868 65.0417 90.9683C65.0224 90.9437 64.9967 90.9314 64.9645 90.9314H61.9918C61.7473 90.9314 61.5253 90.8729 61.3258 90.7559C61.1264 90.639 60.9655 90.485 60.8432 90.2942C60.721 90.1033 60.6599 89.8909 60.6599 89.657V88.9182C60.6599 88.6843 60.721 88.4719 60.8432 88.281C60.9655 88.0901 61.1264 87.9362 61.3258 87.8193C61.5253 87.7023 61.7473 87.6438 61.9918 87.6438H65.0128C65.2637 87.6438 65.4889 87.7023 65.6884 87.8193C65.8879 87.9362 66.0487 88.0901 66.171 88.281C66.2932 88.4719 66.3544 88.6843 66.3544 88.9182V89.1214H65.0803V88.9644C65.0803 88.9336 65.0675 88.909 65.0417 88.8905C65.0224 88.8659 64.9967 88.8536 64.9645 88.8536H62.0401C62.0079 88.8536 61.9789 88.8659 61.9532 88.8905C61.9339 88.909 61.9242 88.9336 61.9242 88.9644V89.6016C61.9242 89.6324 61.9339 89.6601 61.9532 89.6847C61.9789 89.7032 62.0079 89.7124 62.0401 89.7124H65.0128C65.2637 89.7124 65.4889 89.7709 65.6884 89.8879C65.8879 90.0048 66.0487 90.1588 66.171 90.3496C66.2932 90.5405 66.3544 90.7529 66.3544 90.9868V91.7256C66.3544 91.9595 66.2932 92.1719 66.171 92.3628C66.0487 92.5536 65.8879 92.7076 65.6884 92.8245C65.4889 92.9415 65.2637 93 65.0128 93H61.9918Z" fill="white"/>
<path d="M68.6471 93C68.4026 93 68.1774 92.9415 67.9715 92.8245C67.772 92.7076 67.6111 92.5536 67.4889 92.3628C67.3731 92.1719 67.3152 91.9595 67.3152 91.7256V89.7124H71.7356V88.9644C71.7356 88.9336 71.7228 88.909 71.697 88.8905C71.6777 88.8659 71.652 88.8536 71.6198 88.8536H67.3152V87.6438H71.6681C71.9126 87.6438 72.1346 87.7023 72.334 87.8193C72.5399 87.9362 72.7008 88.0901 72.8166 88.281C72.9389 88.4719 73 88.6843 73 88.9182V93H68.6471ZM68.6953 91.7902H71.7356V90.8021H68.5795V91.6794C68.5795 91.7102 68.5892 91.7379 68.6085 91.7625C68.6342 91.781 68.6632 91.7902 68.6953 91.7902Z" fill="white"/>
<g filter="url(#filter0_d_47_148)">
<path d="M60.2699 56.8121L56.8113 44.812C56.6706 44.3082 56.3674 43.864 55.948 43.5476C55.5287 43.2311 55.0164 43.0598 54.4895 43.0599H17.8726C16.7842 43.0599 15.841 43.7799 15.5508 44.812L12.0922 56.8121C11.6569 58.3241 12.8178 59.8601 14.414 59.8601H19.7349L16.8326 81.4604H21.6697L23.2901 69.4603H49.0961L50.6924 81.4604H55.5295L52.6272 59.8601H57.9481C59.5443 59.8601 60.7052 58.3241 60.2699 56.8121ZM23.919 64.6602L24.572 59.8601H47.7901L48.4431 64.6602H23.919Z" fill="white"/>
</g>
<defs>
<filter id="filter0_d_47_148" x="8" y="43.0599" width="56.3621" height="46.4005" filterUnits="userSpaceOnUse" color-interpolation-filters="sRGB">
<feFlood flood-opacity="0" result="BackgroundImageFix"/>
<feColorMatrix in="SourceAlpha" type="matrix" values="0 0 0 0 0 0 0 0 0 0 0 0 0 0 0 0 0 0 127 0" result="hardAlpha"/>
<feOffset dy="4"/>
<feGaussianBlur stdDeviation="2"/>
<feComposite in2="hardAlpha" operator="out"/>
<feColorMatrix type="matrix" values="0 0 0 0 0 0 0 0 0 0 0 0 0 0 0 0 0 0 0.25 0"/>
<feBlend mode="normal" in2="BackgroundImageFix" result="effect1_dropShadow_47_148"/>
<feBlend mode="normal" in="SourceGraphic" in2="effect1_dropShadow_47_148" result="shape"/>
</filter>
<linearGradient id="paint0_linear_47_148" x1="36.5" y1="28.6661" x2="36.5" y2="71.4988" gradientUnits="userSpaceOnUse">
<stop stop-color="#DC6D50"/>
<stop offset="0.479167" stop-color="#D37728"/>
<stop offset="1" stop-color="#98600B"/>
</linearGradient>
</defs>
</svg>
